<svg width="18" height="17" viewBox="0 0 18 17" fill="none" xmlns="http://www.w3.org/2000/svg">
<path id="ic_close" fill-rule="evenodd" clip-rule="evenodd" d="M0.201702 0.248605C0.486612 -0.0649831 0.967789 -0.084538 1.27644 0.204928L9 7.44839L16.7236 0.204928C17.0322 -0.084538 17.5134 -0.0649831 17.7983 0.248605C18.0832 0.562194 18.064 1.05107 17.7553 1.34053L10.1213 8.5L17.7553 15.6595C18.064 15.9489 18.0832 16.4378 17.7983 16.7514C17.5134 17.065 17.0322 17.0845 16.7236 16.7951L9 9.55161L1.27644 16.7951C0.967789 17.0845 0.486612 17.065 0.201702 16.7514C-0.0832073 16.4378 -0.0639602 15.9489 0.244692 15.6595L7.87869 8.5L0.244692 1.34053C-0.0639602 1.05107 -0.0832073 0.562194 0.201702 0.248605Z" fill="#8B8FBB"/>
</svg>
