<svg width="80" height="80" viewBox="0 0 80 80" fill="none" xmlns="http://www.w3.org/2000/svg">
<path d="M45.2485 40.9653C44.5057 40.2235 44.5057 39.0194 45.2485 38.2777L54.2122 29.3266C55.386 28.1545 55.386 26.2407 54.2122 25.0732C53.043 23.9056 51.1219 23.9056 49.9527 25.0732L40.989 34.0242C40.2462 34.7659 39.0404 34.7659 38.2976 34.0242L29.3339 25.0732C28.1647 23.9056 26.2436 23.9056 25.0744 25.0732C23.9052 26.2453 23.9052 28.1591 25.0744 29.3266L34.0381 38.2777C34.7809 39.0194 34.7809 40.2235 34.0381 40.9653L25.0744 49.9163C23.9052 51.0838 23.9052 53.0022 25.0744 54.1697C26.2482 55.3418 28.1647 55.3418 29.3339 54.1697L38.2976 45.2187C39.0404 44.477 40.2462 44.477 40.989 45.2187L49.9527 54.1697C51.1219 55.3418 53.043 55.3418 54.2122 54.1697C55.386 53.0022 55.386 51.0838 54.2122 49.9163L45.2485 40.9653Z" fill="#E5007E"/>
<path fill-rule="evenodd" clip-rule="evenodd" d="M40 4.93827C20.6359 4.93827 4.93827 20.6359 4.93827 40C4.93827 59.3641 20.6359 75.0617 40 75.0617C59.3641 75.0617 75.0617 59.3641 75.0617 40C75.0617 20.6359 59.3641 4.93827 40 4.93827ZM0 40C0 17.9086 17.9086 0 40 0C62.0914 0 80 17.9086 80 40C80 62.0914 62.0914 80 40 80C17.9086 80 0 62.0914 0 40Z" fill="#E5007E"/>
</svg>
