<svg width="25" height="20" viewBox="0 0 25 20" fill="none" xmlns="http://www.w3.org/2000/svg">
<path d="M0 2.5C0 1.11929 1.11929 0 2.5 0H22.5C23.8807 0 25 1.11929 25 2.5C25 3.88071 23.8807 5 22.5 5H2.5C1.11929 5 0 3.88071 0 2.5Z" fill="#616BE8"/>
<path d="M0 10C0 8.61929 1.11929 7.5 2.5 7.5H22.5C23.8807 7.5 25 8.61929 25 10C25 11.3807 23.8807 12.5 22.5 12.5H2.5C1.11929 12.5 0 11.3807 0 10Z" fill="#616BE8"/>
<path d="M0 17.5C0 16.1193 1.11929 15 2.5 15H22.5C23.8807 15 25 16.1193 25 17.5C25 18.8807 23.8807 20 22.5 20H2.5C1.11929 20 0 18.8807 0 17.5Z" fill="#616BE8"/>
</svg>
