<svg width="80" height="80" viewBox="0 0 80 80" fill="none" xmlns="http://www.w3.org/2000/svg">
<path fill-rule="evenodd" clip-rule="evenodd" d="M40 75.4545C59.581 75.4545 75.4545 59.581 75.4545 40C75.4545 20.419 59.581 4.54545 40 4.54545C20.419 4.54545 4.54545 20.419 4.54545 40C4.54545 59.581 20.419 75.4545 40 75.4545ZM40 80C62.0914 80 80 62.0914 80 40C80 17.9086 62.0914 0 40 0C17.9086 0 0 17.9086 0 40C0 62.0914 17.9086 80 40 80Z" fill="#5EC05C"/>
<path d="M26.0893 38.3013L37.2592 50.0491C38.1445 50.9797 39.6316 51.1882 40.5762 50.5114C41.5208 49.8346 41.5675 48.5262 40.6822 47.5956L29.5092 35.8509C28.6238 34.9202 27.1368 34.7118 26.1922 35.3886C25.2507 36.0654 25.204 37.3707 26.0893 38.3013Z" fill="#5EC05C"/>
<path d="M37.8857 50.5027C38.8366 51.1705 40.3236 50.9469 41.1965 50.0072L57.5663 32.3886C58.4392 31.4489 58.3768 30.1436 57.4229 29.4759C56.4721 28.8081 54.985 29.0317 54.1121 29.9714L37.7423 47.59C36.8695 48.5297 36.9349 49.838 37.8857 50.5027Z" fill="#5EC05C"/>
</svg>
