<svg width="30" height="30" viewBox="0 0 30 30" fill="none" xmlns="http://www.w3.org/2000/svg">
<path d="M23.0475 7.69788C22.9148 7.24558 22.5519 6.96577 22.0512 6.93058C21.9502 6.92308 21.3825 6.94615 20.9994 7.14115L20.9977 7.13712L5.12365 13.4094C4.61308 13.5848 4.05 13.9996 4.03846 14.6135C4.03731 14.6619 4.04019 14.7121 4.04654 14.7635C4.14635 15.5712 5.00077 15.8988 5.08904 15.9294L8.76808 17.3152C9.05077 18.2238 9.98423 21.2233 10.185 21.8648C10.32 22.294 10.5427 22.8508 10.9506 23.0031C11.0683 23.0515 11.1935 23.0769 11.3238 23.0769C11.6781 23.0769 11.9088 22.8969 11.9948 22.819L14.2465 20.5748L17.8437 23.4C17.8812 23.43 17.9233 23.4554 17.9677 23.4744C18.266 23.606 18.5308 23.6533 18.7563 23.6533C18.9923 23.6533 19.1862 23.6019 19.3321 23.5419C19.9477 23.2892 20.194 22.7071 20.2206 22.6413C20.2333 22.6085 20.2437 22.5744 20.2506 22.5398L23.04 8.36827C23.104 7.88596 23.0694 7.77231 23.0475 7.69788ZM9.92019 17.1352L15.6156 13.7042L11.7069 17.7733C11.6377 17.8448 11.5985 17.9342 11.5748 18.0283C11.5731 18.0352 10.9944 20.584 10.9944 20.584L9.92019 17.1352Z" fill="#C2C7FB"/>
<path d="M15 30C6.72865 30 0 23.2708 0 15C0 6.72923 6.72865 0 15 0C23.2713 0 30 6.72923 30 15C30 23.2708 23.2713 30 15 30ZM15 1.15385C7.36558 1.15385 1.15385 7.36558 1.15385 15C1.15385 22.6344 7.36558 28.8462 15 28.8462C22.6344 28.8462 28.8462 22.6344 28.8462 15C28.8462 7.36558 22.6344 1.15385 15 1.15385Z" fill="#C2C7FB"/>
</svg>
