<svg width="30" height="30" viewBox="0 0 30 30" fill="none" xmlns="http://www.w3.org/2000/svg">
<path d="M15 30C6.72865 30 0 23.2708 0 15C0 6.72923 6.72865 0 15 0C23.2713 0 30 6.72923 30 15C30 23.2708 23.2713 30 15 30ZM15 1.15385C7.36558 1.15385 1.15385 7.36558 1.15385 15C1.15385 22.6344 7.36558 28.8462 15 28.8462C22.6344 28.8462 28.8462 22.6344 28.8462 15C28.8462 7.36558 22.6344 1.15385 15 1.15385Z" fill="#C2C7FB"/>
<path fill-rule="evenodd" clip-rule="evenodd" d="M9.27198 5.76923L10.6319 9.76331V12.426H11.5385V9.76331L12.8984 5.76923H11.9918L11.0852 8.43195L10.1786 5.76923H9.27198ZM14.2582 7.54438C13.7748 7.54438 13.5376 7.61892 13.2419 7.85642C12.9586 8.09044 12.8806 8.27073 12.8984 8.87574V11.0947C12.8984 11.5367 12.9727 11.828 13.2454 12.0863C13.5287 12.3446 13.7961 12.426 14.2582 12.426C14.7416 12.426 15.0055 12.3446 15.2782 12.0863C15.5615 11.8384 15.6181 11.5367 15.6181 11.0947V8.87574C15.6181 8.48396 15.5473 8.11298 15.2728 7.86508C14.9895 7.61025 14.6974 7.54438 14.2582 7.54438ZM16.5247 7.54438V11.5385C16.5247 11.9701 16.9692 12.426 17.4313 12.426C17.8935 12.426 18.1378 12.1989 18.3379 11.9822V12.426H19.2445V7.54438H18.3379V11.0947C18.3326 11.398 17.9678 11.5385 17.8846 11.5385C17.7908 11.5385 17.4313 11.5194 17.4313 11.0947V7.54438H16.5247ZM14.2582 8.43195C14.3946 8.43195 14.7115 8.43022 14.7115 8.87574V11.0947C14.7115 11.5246 14.4052 11.5385 14.2582 11.5385C14.1219 11.5385 13.8049 11.5333 13.8049 11.0947V8.87574C13.8049 8.51343 14.0015 8.43195 14.2582 8.43195ZM7.91209 13.3136C6.28305 13.3136 5.19231 14.3711 5.19231 15.9763V20.1923C5.19231 21.7976 6.28305 23.0769 7.91209 23.0769H21.511C23.14 23.0769 24.2308 22.0195 24.2308 20.4142V15.9763C24.2308 14.3711 23.14 13.3136 21.511 13.3136H7.91209ZM8.81868 15.0888H11.5385V15.9763H10.6319V21.3018H9.72528V15.9763H8.81868V15.0888ZM15.1648 15.0888H16.0714V16.8639C16.1759 16.7044 16.3317 16.5779 16.4805 16.5068C16.6257 16.434 16.7726 16.3924 16.9214 16.3924C17.2153 16.3924 17.4455 16.4964 17.6031 16.6906C17.7607 16.8864 17.8846 17.1465 17.8846 17.5296V20.1923C17.8846 20.5217 17.7713 20.7262 17.6226 20.9013C17.4774 21.0764 17.2596 21.2983 16.978 21.3018C16.5017 21.307 16.2467 21.0573 16.0714 20.858V21.3018H15.1648V15.0888ZM11.5385 16.4201H12.4451V19.9704C12.4451 20.0727 12.5672 20.4177 12.8984 20.4142C13.2667 20.4107 13.2702 20.0744 13.3516 19.9704V16.4201H14.2582V21.3018H13.3516V20.858C13.1834 21.0521 13.0967 21.1128 12.9072 21.2047C12.7195 21.3087 12.5283 21.3018 12.3512 21.3018C12.1316 21.3018 11.882 21.1076 11.7651 20.962C11.6606 20.8285 11.5385 20.6916 11.5385 20.4142V16.4201ZM19.7881 16.4201C20.2184 16.4201 20.5212 16.5103 20.7496 16.746C20.9833 16.9818 21.0577 17.2574 21.0577 17.7012V19.0828H19.2445V19.7693C19.2445 20.0172 19.2781 20.175 19.3437 20.2686C19.4056 20.3709 19.5314 20.4159 19.6978 20.4142C19.882 20.4125 19.9988 20.3761 20.0608 20.2946C20.1245 20.2218 20.1511 20.0155 20.1511 19.7485V19.5266H21.0577V19.7901C21.0577 20.2738 21.0187 20.6344 20.7744 20.8701C20.5442 21.118 20.1847 21.2324 19.7137 21.2324C19.2835 21.2324 18.947 21.1076 18.7062 20.8511C18.4654 20.5945 18.3397 20.2426 18.3397 19.7901V17.7012C18.3397 17.299 18.4831 17.0009 18.7469 16.7356C18.9594 16.5224 19.3578 16.4201 19.7881 16.4201ZM16.5247 17.0858C16.2751 17.0858 16.075 17.306 16.0714 17.5296V20.1923C16.075 20.3206 16.2751 20.4142 16.5247 20.4142C16.7744 20.4142 16.978 20.2252 16.978 19.9808V17.7515C16.978 17.3077 16.7744 17.0858 16.5247 17.0858ZM19.6978 17.3077C19.4481 17.3077 19.248 17.514 19.2445 17.7515V18.1953H20.1511V17.7515C20.1511 17.4793 19.9475 17.3077 19.6978 17.3077Z" fill="#C2C7FB"/>
</svg>
