<svg width="65" height="60" viewBox="0 0 65 60" fill="none" xmlns="http://www.w3.org/2000/svg">
<rect width="65" height="60" rx="8" fill="#616BE8"/>
<path d="M32.5001 34.7511C29.9993 34.7511 27.9639 32.8436 27.9639 30.5002C27.9639 28.1567 29.9993 26.2493 32.5001 26.2493C35.0009 26.2493 37.0364 28.1567 37.0364 30.5002C37.0364 32.8436 35.0009 34.7511 32.5001 34.7511ZM32.5001 27.6205C30.8056 27.6205 29.4272 28.9122 29.4272 30.5002C29.4272 32.0881 30.8056 33.3798 32.5001 33.3798C34.1946 33.3798 35.5731 32.0881 35.5731 30.5002C35.5731 28.9122 34.1946 27.6205 32.5001 27.6205Z" fill="white"/>
<path d="M33.1337 44H31.865C29.8237 44 28.1629 42.4436 28.1629 40.5321V39.8081C28.1629 39.3172 27.8922 38.8756 27.44 38.6288C26.9849 38.3792 26.442 38.3779 25.9869 38.6192L25.3138 38.9757C24.4548 39.431 23.4554 39.5434 22.5028 39.2952C21.5472 39.0457 20.7541 38.467 20.2698 37.6634L19.6464 36.6268C18.6411 34.9621 19.2703 32.8421 21.0468 31.9C21.5209 31.6491 21.7975 31.1952 21.7872 30.6865C21.777 30.1764 21.4829 29.7321 20.9985 29.4976C19.1869 28.62 18.4757 26.522 19.4137 24.823L19.9961 23.7671C20.4498 22.9471 21.218 22.3397 22.1633 22.0586C23.1101 21.7802 24.1124 21.857 24.986 22.2807L26.0367 22.7908C26.4903 23.0116 27.0244 22.9951 27.4634 22.7442C27.9024 22.4946 28.1643 22.0586 28.1643 21.5772V20.4693C28.1643 18.5564 29.8252 17 31.8665 17H33.1352C35.178 17 36.8374 18.5564 36.8374 20.4693V21.1947C36.8374 21.6856 37.1081 22.1271 37.5603 22.3739C38.011 22.6194 38.5538 22.6263 39.0119 22.3822L39.685 22.0256C40.541 21.5718 41.5419 21.4579 42.496 21.7061C43.4515 21.9543 44.2447 22.5344 44.729 23.3393L45.3539 24.3732C46.3592 26.0379 45.7314 28.1579 43.9535 29.0999C43.4808 29.3509 43.2028 29.8048 43.213 30.3135C43.2233 30.8222 43.5174 31.2665 44.0003 31.501C44.8768 31.9261 45.5236 32.6474 45.8236 33.5318C46.1236 34.4163 46.0387 35.3556 45.5865 36.177L45.0041 37.2329C44.5505 38.0542 43.7808 38.6603 42.837 38.9414C41.8946 39.2212 40.8922 39.1444 40.0142 38.7193L38.965 38.2106C38.5085 37.9912 37.9744 38.0062 37.5368 38.2558C37.0979 38.5054 36.8359 38.9414 36.8359 39.4228V40.5321C36.8359 42.445 35.1765 44 33.1337 44ZM26.7069 37.0669C27.2132 37.0669 27.7195 37.1931 28.179 37.4427C29.0862 37.9391 29.6276 38.8235 29.6276 39.8081V40.5321C29.6276 41.6881 30.6315 42.6287 31.8665 42.6287H33.1352C34.3702 42.6287 35.3741 41.6867 35.3741 40.5321V39.4228C35.3741 38.4601 35.8979 37.5853 36.7759 37.0848C37.6554 36.5856 38.7251 36.55 39.6367 36.9929L40.6874 37.5016C41.2171 37.7594 41.8229 37.806 42.3936 37.636C42.9657 37.466 43.4311 37.0985 43.7047 36.6048L44.2871 35.5476C44.5622 35.0526 44.612 34.4849 44.4305 33.9487C44.2491 33.4125 43.8569 32.9765 43.3301 32.7201C42.3614 32.2497 41.7717 31.3598 41.7512 30.3396C41.7307 29.3193 42.2853 28.4088 43.235 27.907C44.3091 27.3379 44.6895 26.0544 44.0808 25.0493L43.4545 24.014C43.1633 23.5285 42.6833 23.1789 42.1038 23.028C41.5288 22.8772 40.9215 22.9444 40.4049 23.22L39.7318 23.5765C38.8172 24.0606 37.7285 24.0551 36.8227 23.5587C35.9155 23.0623 35.3741 22.1792 35.3741 21.1947V20.4693C35.3741 19.3119 34.3688 18.3713 33.1352 18.3713H31.865C30.63 18.3713 29.6262 19.3119 29.6262 20.4693V21.5772C29.6262 22.5412 29.1023 23.4147 28.2229 23.9166C27.3449 24.4171 26.2752 24.4514 25.3621 24.0085L24.3129 23.4984C23.7846 23.2433 23.1788 23.1953 22.6067 23.3654C22.036 23.5368 21.5692 23.9029 21.2956 24.3979L20.7132 25.4538C20.1454 26.4809 20.5771 27.7493 21.6731 28.2813C22.6403 28.7503 23.23 29.6402 23.2505 30.6618C23.271 31.682 22.7164 32.5912 21.7682 33.0944C20.6941 33.6635 20.3137 34.947 20.9209 35.9521L21.5458 36.9874C21.8384 37.4728 22.3184 37.8225 22.8964 37.9733C23.473 38.1228 24.0788 38.0556 24.5968 37.78L25.2699 37.4235C25.7206 37.1862 26.2137 37.0669 26.7069 37.0669Z" fill="white"/>
</svg>
