<svg width="66" height="60" viewBox="0 0 66 60" fill="none" xmlns="http://www.w3.org/2000/svg">
<rect x="0.580811" width="65.1085" height="60" rx="8" fill="#F2B705"/>
<path fill-rule="evenodd" clip-rule="evenodd" d="M29.8796 17.75C30.3107 17.75 30.6935 18.0254 30.8298 18.4338L37.3921 38.0877L40.1981 29.6838C40.3344 29.2754 40.7172 29 41.1484 29H46.1567C46.7099 29 47.1584 29.4477 47.1584 30C47.1584 30.5523 46.7099 31 46.1567 31H41.8703L38.3424 41.5662C38.206 41.9746 37.8232 42.25 37.3921 42.25C36.9609 42.25 36.5782 41.9746 36.4418 41.5662L29.8796 21.9123L27.0736 30.3162C26.9372 30.7246 26.5544 31 26.1233 31H21.115C20.5617 31 20.1133 30.5523 20.1133 30C20.1133 29.4477 20.5617 29 21.115 29H25.4013L28.9293 18.4338C29.0656 18.0254 29.4484 17.75 29.8796 17.75Z" fill="white"/>
</svg>
