<svg width="160" height="32" viewBox="0 0 160 32" fill="none" xmlns="http://www.w3.org/2000/svg">
<path d="M45.6535 18.1223C44.6221 17.8287 43.7935 17.4472 43.1682 16.9776L44.266 14.5905C44.8648 15.021 45.5766 15.3668 46.4017 15.6275C47.2264 15.8884 48.0518 16.0189 48.8768 16.0189C49.795 16.0189 50.4739 15.8852 50.9131 15.6178C51.3523 15.3505 51.5717 14.995 51.5717 14.5514C51.5717 14.2253 51.4422 13.9545 51.1829 13.7394C50.9232 13.5243 50.5903 13.3515 50.1845 13.2207C49.7787 13.0906 49.2296 12.947 48.5377 12.7902C47.473 12.5428 46.6015 12.2947 45.923 12.0465C45.2444 11.7991 44.662 11.4009 44.1764 10.8528C43.6905 10.305 43.4475 9.57475 43.4475 8.6615C43.4475 7.86588 43.6672 7.14495 44.1064 6.49935C44.5456 5.85343 45.2071 5.34183 46.0923 4.96326C46.9772 4.585 48.0586 4.39588 49.3362 4.39588C50.2277 4.39588 51.0995 4.50038 51.951 4.70906C52.8025 4.91774 53.5481 5.21778 54.1867 5.60918L53.1887 8.0159C51.8977 7.29882 50.6067 6.9398 49.316 6.9398C48.4108 6.9398 47.7424 7.0834 47.3098 7.3703C46.8775 7.65751 46.6613 8.03545 46.6613 8.50539C46.6613 8.975 46.9108 9.32408 47.4098 9.55231C47.9085 9.78055 48.6701 10.0059 49.6953 10.2274C50.7597 10.4752 51.6315 10.7233 52.3101 10.9711C52.9886 11.2189 53.5707 11.6103 54.0569 12.1449C54.5422 12.68 54.7855 13.4041 54.7855 14.317C54.7855 15.0998 54.5625 15.814 54.1168 16.4596C53.6711 17.1055 53.0023 17.6175 52.1106 17.9957C51.2188 18.374 50.1345 18.5631 48.8572 18.5631C47.7526 18.5628 46.6845 18.4159 45.6535 18.1223Z" fill="#F2B705"/>
<path d="M66.2033 15.3928H59.7158L58.4784 18.3278H55.1648L61.3927 4.63085H64.5865L70.8344 18.3278H67.441L66.2033 15.3928ZM65.1853 12.9861L62.9698 7.74214L60.7543 12.9861H65.1853Z" fill="#F2B705"/>
<path d="M84.4277 12.4479C84.88 13.0287 85.1062 13.7429 85.1062 14.5905C85.1062 15.7909 84.6304 16.7135 83.6792 17.3594C82.7276 18.005 81.3404 18.3278 79.517 18.3278H72.2908V4.63085H79.1178C80.8208 4.63085 82.1285 4.95076 83.0399 5.58962C83.9513 6.22881 84.4074 7.09622 84.4074 8.1922C84.4074 8.85735 84.2443 9.45101 83.9185 9.97287C83.5922 10.4947 83.1364 10.9057 82.551 11.2057C83.3496 11.4535 83.9754 11.8677 84.4277 12.4479ZM75.505 7.01801V10.2466H78.7188C79.517 10.2466 80.1227 10.1098 80.5353 9.83568C80.9477 9.56193 81.1544 9.15739 81.1544 8.62238C81.1544 8.0877 80.9477 7.68669 80.5353 7.41903C80.1227 7.152 79.5174 7.01801 78.7188 7.01801H75.505ZM81.2041 15.53C81.636 15.2563 81.8525 14.8322 81.8525 14.258C81.8525 13.123 80.9941 12.5556 79.2777 12.5556H75.505V15.9406H79.2777C80.1292 15.9406 80.7714 15.8038 81.2041 15.53Z" fill="#F2B705"/>
<path d="M91.4541 7.21387H86.9829V4.63085H99.159V7.21387H94.6879V18.3281H91.4538L91.4541 7.21387Z" fill="#616BE8"/>
<path d="M110.797 18.3281L108.102 14.5126H105.128V18.3281H101.893V4.63117H107.942C109.179 4.63117 110.254 4.83344 111.165 5.23766C112.077 5.6422 112.779 6.21598 113.271 6.95967C113.764 7.70303 114.01 8.58359 114.01 9.60135C114.01 10.6188 113.76 11.4962 113.261 12.2331C112.763 12.9704 112.054 13.5342 111.135 13.9256L114.269 18.3281H110.797ZM109.978 7.83029C109.472 7.41934 108.733 7.21387 107.762 7.21387H105.128V11.9882H107.762C108.734 11.9882 109.472 11.7798 109.978 11.3622C110.484 10.9448 110.736 10.3579 110.736 9.60104C110.736 8.83139 110.484 8.24092 109.978 7.83029Z" fill="#616BE8"/>
<path d="M126.765 15.3928H120.277L119.04 18.3278H115.727L121.954 4.63085H125.148L131.396 18.3278H128.003L126.765 15.3928ZM125.747 12.9861L123.532 7.74214L121.316 12.9861H125.747Z" fill="#616BE8"/>
<path d="M145.668 4.63085V18.3278H143.014L136.047 10.0117V18.3278H132.853V4.63085H135.528L142.474 12.947V4.63085H145.668Z" fill="#616BE8"/>
<path d="M150.868 18.1223C149.837 17.8287 149.008 17.4472 148.383 16.9776L149.481 14.5905C150.079 15.021 150.791 15.3668 151.616 15.6275C152.441 15.8884 153.266 16.0189 154.091 16.0189C155.01 16.0189 155.688 15.8852 156.128 15.6178C156.567 15.3505 156.786 14.995 156.786 14.5514C156.786 14.2253 156.657 13.9545 156.397 13.7394C156.138 13.5243 155.805 13.3515 155.399 13.2207C154.993 13.0906 154.444 12.947 153.752 12.7902C152.687 12.5428 151.816 12.2947 151.137 12.0465C150.459 11.7991 149.877 11.4009 149.391 10.8528C148.905 10.305 148.662 9.57475 148.662 8.6615C148.662 7.86588 148.882 7.14495 149.321 6.49935C149.76 5.85343 150.422 5.34183 151.307 4.96326C152.192 4.585 153.273 4.39588 154.551 4.39588C155.442 4.39588 156.314 4.50038 157.166 4.70906C158.017 4.91774 158.763 5.21778 159.401 5.60918L158.403 8.0159C157.112 7.29882 155.821 6.9398 154.53 6.9398C153.625 6.9398 152.957 7.0834 152.524 7.3703C152.092 7.65751 151.876 8.03545 151.876 8.50539C151.876 8.975 152.125 9.32408 152.624 9.55231C153.123 9.78055 153.885 10.0059 154.91 10.2274C155.974 10.4752 156.846 10.7233 157.525 10.9711C158.203 11.2189 158.785 11.6103 159.271 12.1449C159.757 12.68 160 13.4041 160 14.317C160 15.0998 159.777 15.814 159.331 16.4596C158.886 17.1055 158.217 17.6175 157.325 17.9957C156.433 18.374 155.349 18.5631 154.072 18.5631C152.967 18.5628 151.899 18.4159 150.868 18.1223Z" fill="#616BE8"/>
<path d="M18.8798 22.5181C18.8798 22.5181 22.122 21.049 22.347 19.4831C22.4075 19.0606 22.3225 18.6349 22.1256 18.2024C21.5514 16.9423 20.7202 16.6311 15.7088 17.8287C11.6974 18.7814 8.88054 18.1496 7.74452 15.6569C6.35212 12.6011 8.09997 8.36336 13.2435 6.11083C13.6254 5.9435 13.99 5.79764 14.3412 5.66749L14.3409 5.66653C14.3644 5.6582 14.39 5.64923 14.4138 5.64057C15.7536 5.14948 16.8706 4.91836 17.7921 4.87733C18.3536 4.81931 18.954 4.79014 19.5903 4.80489C20.1646 4.81835 20.7035 4.86611 21.2031 4.93535C21.7421 5.01004 22.2028 4.55645 22.1318 4.02786C22.0092 3.11845 21.8872 2.20904 21.7646 1.29963C21.7205 0.972985 21.4795 0.705643 21.1544 0.622619C20.3752 0.423555 19.5966 0.225125 18.8173 0.0260606C18.4749 -0.0611301 18.1133 0.0751098 17.9193 0.365211C17.2735 1.32976 16.6283 2.29399 15.9825 3.25853C14.5234 3.50985 13.7536 3.64288 12.2945 3.89452C11.2726 3.14602 10.251 2.39753 9.22913 1.64903C8.95673 1.44965 8.58722 1.43426 8.29847 1.61057L6.18993 2.89791C5.88679 3.08287 5.73964 3.43804 5.82466 3.77815C6.15723 5.10044 6.48946 6.42305 6.82138 7.74533C6.88089 7.98286 6.82792 8.23353 6.67717 8.42843C6.38678 8.80315 6.09575 9.1782 5.80537 9.55293C5.66868 9.72955 5.46364 9.84336 5.23866 9.86772C3.8842 10.0142 2.52908 10.1607 1.17462 10.3075C0.813277 10.3466 0.520932 10.6127 0.453569 10.9627C0.306743 11.7308 0.160244 12.4991 0.0140714 13.2672C-0.0431548 13.5679 0.0768569 13.8743 0.325055 14.0593C1.41562 14.8741 2.50619 15.6887 3.59611 16.5035C3.77956 16.6407 3.89597 16.8468 3.91788 17.0722C3.96759 17.5953 4.01729 18.1188 4.067 18.6419C4.08531 18.8362 4.03135 19.0304 3.91559 19.1891C3.51959 19.7299 3.30965 20.035 2.57683 21.0169C2.48069 21.1454 2.46793 21.3166 2.54314 21.4574L2.55263 21.4753C2.98395 22.2841 3.41593 23.0928 3.84757 23.9022C4.0029 24.1926 4.30604 24.3773 4.64057 24.385C6.71608 24.4337 9.15588 24.2273 11.9008 24.0365C13.6908 23.9144 16.1326 23.7112 18.8798 22.5181Z" fill="#F2B705"/>
<path d="M23.2296 7.54273C19.0616 7.93189 17.2657 8.08448 15.8458 8.7679C13.6061 9.84624 11.4606 12.0924 11.9302 13.406C12.0162 13.647 12.1663 13.7955 12.2785 13.8977C12.9861 14.5433 14.5273 14.542 18.178 13.6608C22.4889 12.6091 25.2319 13.498 26.3558 15.9643C28.0049 19.5831 26.1527 23.2557 20.8493 25.5784C19.9788 25.9595 19.1665 26.2467 18.4151 26.4471C16.0263 27.1901 14.1797 27.4177 12.7703 27.4883C12.6647 27.4934 12.5931 27.596 12.6284 27.6937C13.024 28.7929 13.4194 29.8921 13.8151 30.9913C13.9102 31.2557 14.1382 31.4532 14.4177 31.5125C15.1493 31.6689 15.8801 31.825 16.6116 31.9815C16.9684 32.0574 17.334 31.8952 17.5106 31.5811C18.0642 30.5963 18.6175 29.6119 19.1711 28.6269C20.4674 28.3278 21.123 28.1765 22.4196 27.8771C23.294 28.4695 24.1681 29.0615 25.0425 29.6533C25.3453 29.8581 25.7502 29.8421 26.035 29.6135C26.7266 29.058 27.4179 28.5025 28.1095 27.9466C28.3741 27.7341 28.4771 27.3844 28.3698 27.0664C28.0883 26.2339 27.8074 25.4011 27.5258 24.5686C28.2796 23.3169 28.6462 22.7075 29.3999 21.4557L32.5287 20.8829C32.8704 20.8204 33.1356 20.5547 33.1919 20.2184C33.3188 19.4619 33.445 18.7057 33.5719 17.9492C33.6297 17.6033 33.4535 17.2597 33.1356 17.0991C31.9633 16.5064 30.791 15.914 29.6187 15.3213C29.4146 15.2184 29.2639 15.0366 29.2017 14.82C29.0729 14.3702 28.9447 13.9202 28.8162 13.4698C28.7528 13.2476 28.7894 13.0091 28.9159 12.8149C29.5883 11.7862 30.2606 10.7576 30.9329 9.72859C31.1173 9.4465 31.1052 9.08268 30.9025 8.81277C30.444 8.20147 29.9852 7.59017 29.5268 6.97888C29.3332 6.72115 29.0029 6.59902 28.6841 6.66826C27.4856 6.92695 26.2875 7.18628 25.089 7.44497L23.2296 7.54273Z" fill="#616BE8"/>
<path d="M45.6748 26.1384H46.2624C46.1669 26.316 46.0868 26.45 46.022 26.5398C45.9573 26.6295 45.8772 26.718 45.7817 26.8045C45.3873 27.1668 44.9112 27.3482 44.3527 27.3482C43.9609 27.3482 43.6022 27.2607 43.2765 27.0853C42.9511 26.9077 42.6938 26.6664 42.5054 26.3615C42.3167 26.0544 42.2225 25.7172 42.2225 25.3499C42.2225 24.9851 42.3167 24.6488 42.5054 24.3417C42.6938 24.0346 42.9511 23.7923 43.2765 23.6144C43.6022 23.4342 43.956 23.3445 44.338 23.3445C44.9354 23.3445 45.4436 23.5531 45.8625 23.9712C46.0093 24.1199 46.145 24.3263 46.2699 24.5905H45.6751C45.56 24.4273 45.4449 24.2978 45.3298 24.2016C45.0381 23.9593 44.7055 23.8381 44.3304 23.8381C44.0417 23.8381 43.7762 23.9051 43.5335 24.0398C43.2909 24.1718 43.0999 24.3529 42.9603 24.5834C42.8206 24.8139 42.751 25.0646 42.751 25.3361C42.751 25.6194 42.8193 25.8775 42.9567 26.1102C43.0937 26.3407 43.2834 26.5231 43.526 26.6574C43.7657 26.7895 44.0315 26.8555 44.3229 26.8555C44.5852 26.8555 44.8275 26.8016 45.0505 26.6933C45.1754 26.6311 45.2804 26.5625 45.3664 26.4881C45.4517 26.4109 45.5544 26.2945 45.6748 26.1384Z" fill="#616BE8"/>
<path d="M47.5259 26.6029L49.781 23.4272H50.3173V27.2616H49.781V24.0824L47.5259 27.2616H47.0008V23.4272H47.5259V26.6029Z" fill="#616BE8"/>
<path d="M54.5157 26.1384H55.1034C55.0079 26.316 54.9277 26.45 54.8627 26.5398C54.7979 26.6298 54.7178 26.718 54.6223 26.8045C54.228 27.1668 53.7518 27.3482 53.1936 27.3482C52.8019 27.3482 52.4432 27.2607 52.1175 27.0853C51.7918 26.9077 51.5347 26.6664 51.3464 26.3615C51.1577 26.0544 51.0635 25.7172 51.0635 25.3499C51.0635 24.9851 51.1577 24.6488 51.3464 24.3417C51.5347 24.0346 51.7918 23.7923 52.1175 23.6144C52.4432 23.4342 52.797 23.3445 53.1789 23.3445C53.7764 23.3445 54.2845 23.5531 54.7031 23.9712C54.8499 24.1199 54.986 24.3263 55.1109 24.5905H54.516C54.4006 24.4273 54.2858 24.2978 54.1704 24.2016C53.879 23.9593 53.5461 23.8381 53.1714 23.8381C52.8823 23.8381 52.6168 23.9051 52.3742 24.0398C52.1318 24.1718 51.9409 24.3529 51.8012 24.5834C51.6616 24.8139 51.5916 25.0646 51.5916 25.3361C51.5916 25.6194 51.6603 25.8775 51.7973 26.1102C51.9347 26.3407 52.1243 26.5231 52.3666 26.6574C52.6063 26.7895 52.8722 26.8555 53.1639 26.8555C53.4258 26.8555 53.6681 26.8016 53.8911 26.6933C54.0161 26.6311 54.1214 26.5625 54.207 26.4881C54.2927 26.4109 54.3954 26.2945 54.5157 26.1384Z" fill="#616BE8"/>
<path d="M56.4111 27.2616V23.8987H55.4892V23.4342H57.8581V23.8987H56.9398V27.2616H56.4111Z" fill="#616BE8"/>
<path d="M62.306 25.4973H58.7684C58.7953 25.7038 58.8371 25.8659 58.8934 25.9836C58.9689 26.1516 59.0791 26.3029 59.2236 26.4372C59.3679 26.5692 59.533 26.6718 59.7191 26.7449C59.9051 26.8183 60.0984 26.8549 60.2988 26.8549C60.7246 26.8549 61.0902 26.7119 61.3959 26.4263C61.5111 26.316 61.6085 26.1791 61.6893 26.016H62.2471C62.149 26.2368 62.0614 26.4026 61.9829 26.5128C61.9044 26.6234 61.7946 26.7372 61.6523 26.8549C61.4689 27.011 61.256 27.1321 61.014 27.2184C60.7717 27.3049 60.5284 27.3479 60.2838 27.3479C59.9143 27.3479 59.5742 27.2597 59.2635 27.0831C58.9532 26.9068 58.7066 26.6648 58.5242 26.3577C58.3417 26.0506 58.2508 25.7143 58.2508 25.3495C58.2508 24.9873 58.3411 24.6523 58.5222 24.3449C58.7034 24.0375 58.9499 23.7942 59.2619 23.6141C59.5735 23.4339 59.912 23.3442 60.2766 23.3442C60.5846 23.3442 60.8773 23.4089 61.154 23.5384C61.4303 23.6682 61.6664 23.8519 61.8619 24.0894C62.048 24.3151 62.1765 24.5732 62.2475 24.8636C62.2717 24.9719 62.2913 25.1829 62.306 25.4973ZM58.7868 25.0258H61.7664C61.7272 24.8075 61.6356 24.6068 61.4911 24.4244C61.3492 24.242 61.171 24.0984 60.9571 23.9942C60.7432 23.8901 60.5183 23.8378 60.2835 23.8378C60.0438 23.8378 59.8204 23.8862 59.6138 23.9837C59.4071 24.0811 59.2315 24.2209 59.0873 24.4033C58.9434 24.5828 58.843 24.7905 58.7868 25.0258Z" fill="#616BE8"/>
<path d="M62.9891 27.2616V23.4342H63.8119L65.1049 26.4119L65.1526 26.5955L65.2039 26.4048L66.4456 23.4342H67.2428V27.2616H66.7177V23.9349L65.2854 27.2616H64.9473L63.5186 23.9349V27.2616H62.9891Z" fill="#616BE8"/>
<path d="M72.0724 23.4272V27.2581H71.5583V26.5378C71.4629 26.6988 71.3549 26.8343 71.2349 26.9449C70.9145 27.2136 70.5191 27.3482 70.0486 27.3482C69.7353 27.3482 69.4168 27.2719 69.0937 27.1196C68.7706 26.9674 68.5146 26.7734 68.3259 26.5381C68.2085 26.3868 68.1146 26.2041 68.045 25.989C67.9753 25.7743 67.9403 25.5589 67.9403 25.3428C67.9403 24.9828 68.0342 24.6491 68.2212 24.3417C68.4086 24.0346 68.664 23.7923 68.9871 23.6144C69.3079 23.4342 69.6568 23.3445 70.0338 23.3445C70.269 23.3445 70.491 23.3804 70.7006 23.4525C70.9102 23.5246 71.0904 23.6288 71.2421 23.766C71.3599 23.8667 71.4651 23.9978 71.5583 24.1584V23.4237L72.0724 23.4272ZM70.0633 23.8378C69.7696 23.8378 69.5002 23.9054 69.2552 24.041C69.0103 24.1766 68.818 24.361 68.6784 24.5937C68.5388 24.8267 68.4691 25.0812 68.4691 25.3569C68.4691 25.6259 68.5401 25.8749 68.682 26.1041C68.8239 26.3333 69.0155 26.516 69.2569 26.6516C69.4979 26.7872 69.7595 26.8552 70.0407 26.8552C70.3102 26.8552 70.562 26.7872 70.7958 26.6516C71.0296 26.516 71.215 26.3336 71.3523 26.1041C71.4893 25.8749 71.558 25.6259 71.558 25.3569C71.558 25.0883 71.4907 24.836 71.3559 24.6007C71.2212 24.3658 71.0387 24.1795 70.8085 24.0426C70.5783 23.9058 70.3301 23.8378 70.0633 23.8378Z" fill="#616BE8"/>
<path d="M78.9337 23.4272V27.2581H78.4196V26.5378C78.3241 26.6988 78.2165 26.8343 78.0965 26.9449C77.7757 27.2136 77.3804 27.3482 76.9101 27.3482C76.5965 27.3482 76.2784 27.2719 75.955 27.1196C75.6319 26.9674 75.3758 26.7734 75.1875 26.5381C75.0701 26.3868 74.9762 26.2041 74.9066 25.989C74.8366 25.7743 74.8019 25.5589 74.8019 25.3428C74.8019 24.9828 74.8955 24.6491 75.0828 24.3417C75.2699 24.0346 75.5256 23.7923 75.8487 23.6144C76.1692 23.4342 76.5184 23.3445 76.8954 23.3445C77.1305 23.3445 77.3526 23.3804 77.5619 23.4525C77.7715 23.5246 77.9517 23.6288 78.1037 23.766C78.2211 23.8667 78.3267 23.9978 78.4196 24.1584V23.4237L78.9337 23.4272ZM76.9245 23.8378C76.6309 23.8378 76.3611 23.9054 76.1165 24.041C75.8716 24.1766 75.6793 24.361 75.5397 24.5937C75.4 24.8267 75.33 25.0812 75.33 25.3569C75.33 25.6259 75.401 25.8749 75.5429 26.1041C75.6852 26.3333 75.8768 26.516 76.1178 26.6516C76.3588 26.7872 76.6204 26.8552 76.902 26.8552C77.1711 26.8552 77.4229 26.7872 77.6567 26.6516C77.8908 26.516 78.0759 26.3336 78.2133 26.1041C78.3503 25.8749 78.419 25.6259 78.419 25.3569C78.419 25.0883 78.3516 24.836 78.2172 24.6007C78.0825 24.3658 77.8997 24.1795 77.6698 24.0426C77.4399 23.9061 77.1914 23.8378 76.9245 23.8378Z" fill="#616BE8"/>
<path d="M79.8336 27.2616V23.4342H81.0311C81.2463 23.4342 81.4212 23.4487 81.5559 23.4775C81.6907 23.5064 81.8107 23.5557 81.916 23.625C82.0605 23.7138 82.1733 23.8317 82.2541 23.9779C82.3349 24.1241 82.3751 24.2815 82.3751 24.4494C82.3751 24.6248 82.3309 24.7822 82.243 24.9213C82.1547 25.0582 82.036 25.1566 81.8865 25.2165C82.0926 25.2623 82.2616 25.3739 82.3954 25.5512C82.5288 25.7288 82.5955 25.9352 82.5955 26.1705C82.5955 26.3506 82.554 26.5186 82.4706 26.6744C82.3823 26.8305 82.2636 26.9565 82.1145 27.0526C81.9869 27.1341 81.8486 27.1895 81.6992 27.2184C81.5523 27.2472 81.3319 27.2616 81.0383 27.2616H79.8336ZM80.3512 25.0546H81.0013C81.2754 25.0546 81.4676 25.0235 81.5778 24.961C81.7518 24.8674 81.8388 24.7055 81.8388 24.4747C81.8388 24.2587 81.7518 24.0981 81.5778 23.9923C81.5314 23.9635 81.4761 23.942 81.4127 23.9276C81.3221 23.9083 81.1923 23.8987 81.0236 23.8987H80.3512V25.0546ZM81.0455 26.7972C81.3587 26.7972 81.5765 26.7648 81.6992 26.6997C81.9143 26.5846 82.0222 26.4035 82.0222 26.156C82.0222 26.0169 81.9856 25.8958 81.912 25.7925C81.8385 25.6893 81.7364 25.6166 81.6053 25.5746C81.4742 25.5326 81.2705 25.5114 80.9938 25.5114H80.3509V26.7972H81.0455Z" fill="#616BE8"/>
<path d="M83.9179 27.2616V23.8987H82.9961V23.4342H85.3652V23.8987H84.4467V27.2616H83.9179Z" fill="#616BE8"/>
<path d="M87.7671 23.3442C88.1392 23.3442 88.4836 23.4342 88.8011 23.6141C89.1183 23.7942 89.3694 24.0372 89.5558 24.3433C89.7419 24.6494 89.8351 24.9799 89.8351 25.3351C89.8351 25.6951 89.7435 26.0301 89.5598 26.3397C89.376 26.6494 89.1288 26.8949 88.8175 27.076C88.5065 27.2572 88.1687 27.3479 87.8037 27.3479C87.4414 27.3479 87.102 27.2578 86.7864 27.078C86.4705 26.9029 86.2204 26.6622 86.0353 26.3561C85.8505 26.0499 85.7576 25.7195 85.7576 25.364C85.7576 25.0062 85.8495 24.6725 86.0333 24.3629C86.2145 24.051 86.4594 23.8029 86.7678 23.6195C87.0768 23.4362 87.4094 23.3442 87.7671 23.3442ZM87.8041 23.8378C87.5176 23.8474 87.2593 23.9205 87.0291 24.0574C86.7962 24.1917 86.6144 24.3741 86.4836 24.6046C86.3528 24.835 86.2871 25.0883 86.2871 25.3643C86.2871 25.6355 86.3541 25.8852 86.4888 26.1131C86.6262 26.3436 86.8113 26.5247 87.0454 26.6568C87.2792 26.7888 87.5343 26.8549 87.8112 26.8549C88.0879 26.8549 88.3413 26.7875 88.5715 26.6532C88.7991 26.5164 88.9783 26.3304 89.1098 26.0951C89.2406 25.8599 89.3063 25.5996 89.3063 25.3136C89.3063 25.0543 89.2396 24.811 89.1062 24.5828C88.9728 24.3549 88.7923 24.1737 88.5647 24.0391C88.3371 23.9045 88.0935 23.8375 87.8338 23.8375L87.8041 23.8378Z" fill="#616BE8"/>
<path d="M90.5326 27.2616V23.4342H91.3557L92.6483 26.4119L92.6961 26.5955L92.7474 26.4048L93.9891 23.4342H94.786V27.2616H94.2611V23.9349L92.8285 27.2616H92.4907L91.062 23.9349V27.2616H90.5326Z" fill="#616BE8"/>
<path d="M99.6162 23.4272V27.2581H99.1021V26.5378C99.0067 26.6988 98.8991 26.8343 98.7791 26.9449C98.4583 27.2136 98.0629 27.3482 97.5927 27.3482C97.2791 27.3482 96.9609 27.2719 96.6375 27.1196C96.3144 26.9674 96.0584 26.7734 95.87 26.5381C95.7526 26.3868 95.6588 26.2041 95.5891 25.989C95.5191 25.7743 95.4845 25.5589 95.4845 25.3428C95.4845 24.9828 95.578 24.6491 95.7654 24.3417C95.9524 24.0346 96.2081 23.7923 96.5312 23.6144C96.8517 23.4342 97.2009 23.3445 97.578 23.3445C97.8131 23.3445 98.0351 23.3804 98.2444 23.4525C98.454 23.5246 98.6342 23.6288 98.7863 23.766C98.9037 23.8667 99.0093 23.9978 99.1021 24.1584V23.4237L99.6162 23.4272ZM97.6071 23.8378C97.3134 23.8378 97.0436 23.9054 96.799 24.041C96.5541 24.1766 96.3618 24.361 96.2222 24.5937C96.0826 24.8267 96.0126 25.0812 96.0126 25.3569C96.0126 25.6259 96.0835 25.8749 96.2255 26.1041C96.3677 26.3333 96.5593 26.516 96.8004 26.6516C97.0414 26.7872 97.303 26.8552 97.5845 26.8552C97.8536 26.8552 98.1054 26.7872 98.3392 26.6516C98.5734 26.516 98.7585 26.3336 98.8958 26.1041C99.0328 25.8749 99.1015 25.6259 99.1015 25.3569C99.1015 25.0883 99.0341 24.836 98.8997 24.6007C98.765 24.3658 98.5822 24.1795 98.3523 24.0426C98.1224 23.9061 97.8739 23.8378 97.6071 23.8378Z" fill="#616BE8"/>
<path d="M101.085 27.2616V23.8987H100.164V23.4342H102.533V23.8987H101.614V27.2616H101.085Z" fill="#616BE8"/>
<path d="M103.601 26.6029L105.856 23.4272H106.393V27.2616H105.856V24.0824L103.601 27.2616H103.076V23.4272H103.601V26.6029Z" fill="#616BE8"/>
<path d="M108.938 25.2095C109.153 25.2598 109.319 25.3367 109.434 25.4399C109.64 25.6249 109.743 25.8663 109.743 26.1637C109.743 26.3006 109.715 26.4391 109.662 26.5795C109.608 26.7199 109.534 26.8395 109.441 26.9379C109.37 27.0122 109.282 27.0831 109.177 27.1504C109.061 27.2174 108.953 27.2642 108.85 27.2908C108.747 27.3149 108.61 27.3267 108.439 27.3267C108.179 27.3267 107.951 27.2812 107.753 27.1898C107.556 27.0985 107.403 26.9667 107.292 26.794C107.182 26.6209 107.123 26.4183 107.116 26.1855H107.641C107.658 26.3176 107.68 26.4154 107.707 26.4792C107.734 26.5426 107.781 26.6058 107.847 26.668C107.999 26.8122 108.191 26.884 108.424 26.884C108.654 26.884 108.842 26.818 108.988 26.6859C109.133 26.5539 109.206 26.3849 109.206 26.1785C109.206 26.0464 109.169 25.9253 109.096 25.815C109.022 25.7044 108.923 25.6182 108.799 25.5557C108.674 25.4935 108.534 25.462 108.38 25.462C108.284 25.462 108.205 25.4669 108.141 25.4765V25.0194C108.242 25.029 108.304 25.0338 108.328 25.0338C108.517 25.0338 108.677 24.9755 108.808 24.8591C108.939 24.7427 109.005 24.5991 109.005 24.4289C109.005 24.2443 108.946 24.0959 108.828 23.9843C108.711 23.8727 108.554 23.817 108.358 23.817C108.182 23.817 108.04 23.8673 107.932 23.9683C107.824 24.0667 107.761 24.2084 107.741 24.393H107.216C107.238 24.0667 107.353 23.8134 107.561 23.6333C107.769 23.4509 108.05 23.3595 108.402 23.3595C108.613 23.3595 108.804 23.4041 108.977 23.4929C109.15 23.5817 109.285 23.7048 109.383 23.8618C109.481 24.0192 109.53 24.1936 109.53 24.3856C109.53 24.5584 109.496 24.7084 109.427 24.8357C109.386 24.9101 109.329 24.9742 109.258 25.0283C109.187 25.0816 109.08 25.1421 108.938 25.2095Z" fill="#616BE8"/>
<path d="M114.477 23.4272V27.2581H113.963V26.5378C113.868 26.6988 113.76 26.8343 113.64 26.9449C113.319 27.2136 112.924 27.3482 112.454 27.3482C112.14 27.3482 111.822 27.2719 111.498 27.1196C111.175 26.9674 110.919 26.7734 110.731 26.5381C110.613 26.3868 110.52 26.2041 110.45 25.989C110.38 25.7743 110.345 25.5589 110.345 25.3428C110.345 24.9828 110.439 24.6491 110.626 24.3417C110.813 24.0346 111.069 23.7923 111.392 23.6144C111.713 23.4342 112.062 23.3445 112.439 23.3445C112.674 23.3445 112.896 23.3804 113.105 23.4525C113.315 23.5246 113.495 23.6288 113.647 23.766C113.764 23.8667 113.87 23.9978 113.963 24.1584V23.4237L114.477 23.4272ZM112.468 23.8378C112.174 23.8378 111.904 23.9054 111.66 24.041C111.415 24.1766 111.223 24.361 111.083 24.5937C110.943 24.8267 110.873 25.0812 110.873 25.3569C110.873 25.6259 110.944 25.8749 111.086 26.1041C111.229 26.3333 111.42 26.516 111.661 26.6516C111.902 26.7872 112.164 26.8552 112.445 26.8552C112.714 26.8552 112.966 26.7872 113.2 26.6516C113.434 26.516 113.619 26.3336 113.757 26.1041C113.894 25.8749 113.962 25.6259 113.962 25.3569C113.962 25.0883 113.895 24.836 113.761 24.6007C113.626 24.3658 113.443 24.1795 113.213 24.0426C112.984 23.9061 112.735 23.8378 112.468 23.8378Z" fill="#616BE8"/>
<path d="M115.377 23.4272H115.902V26.7975H117.684V23.4272H118.212V26.7975H118.598V28.1477H118.088L118.084 27.262H115.377V23.4272Z" fill="#616BE8"/>
<path d="M119.928 26.6029L122.183 23.4272H122.72V27.2616H122.183V24.0824L119.928 27.2616H119.403V23.4272H119.928V26.6029Z" fill="#616BE8"/>
<path d="M124.141 26.6029L126.396 23.4272H126.932V27.2616H126.396V24.0824L124.141 27.2616H123.616V23.4272H124.141V26.6029Z" fill="#616BE8"/>
<path d="M131.681 27.3517C131.497 27.3447 131.349 27.3302 131.237 27.3084C131.068 27.2773 130.887 27.2059 130.693 27.0943C130.5 26.9828 130.338 26.8539 130.209 26.7071C130.094 26.575 130.003 26.434 129.937 26.2843C129.871 26.1343 129.822 25.9567 129.792 25.7512C129.761 25.546 129.746 25.2922 129.746 24.9899C129.746 24.6081 129.762 24.301 129.794 24.0683C129.823 23.833 129.876 23.6144 129.952 23.4131C130.133 22.9162 130.499 22.5912 131.05 22.4373C131.3 22.3652 131.773 22.2693 132.471 22.1494C132.66 22.1184 132.808 22.0751 132.916 22.0199V22.5562C132.891 22.5707 132.869 22.5803 132.85 22.5851C132.664 22.6546 132.346 22.7245 131.898 22.7941C131.529 22.8518 131.235 22.9268 131.017 23.0191C130.799 23.1117 130.628 23.2332 130.503 23.3845C130.42 23.4807 130.353 23.5932 130.305 23.723C130.246 23.9054 130.207 24.0555 130.189 24.1731C130.17 24.2907 130.144 24.5488 130.11 24.9472C130.178 24.7216 130.244 24.5542 130.308 24.4449C130.372 24.3356 130.464 24.2247 130.583 24.1119C130.909 23.8166 131.301 23.6692 131.759 23.6692C132.099 23.6692 132.41 23.7484 132.692 23.9067C132.974 24.0628 133.195 24.2789 133.357 24.5546C133.518 24.8283 133.599 25.1306 133.599 25.462C133.599 25.9685 133.436 26.3958 133.111 26.7439C132.922 26.9456 132.699 27.0982 132.442 27.2014C132.335 27.2517 132.231 27.2866 132.13 27.3059C132.029 27.3242 131.88 27.3395 131.681 27.3517ZM130.297 25.4903C130.297 25.7425 130.357 25.9721 130.479 26.1798C130.6 26.3875 130.766 26.5507 130.976 26.6696C131.187 26.7885 131.419 26.8478 131.674 26.8478C131.919 26.8478 132.144 26.7875 132.35 26.6677C132.558 26.5478 132.722 26.3833 132.842 26.1743C132.964 25.9679 133.026 25.7448 133.026 25.5047C133.026 25.2598 132.966 25.0367 132.846 24.835C132.726 24.6309 132.559 24.4703 132.346 24.3526C132.136 24.2375 131.904 24.1798 131.652 24.1798C131.39 24.1798 131.156 24.2356 130.951 24.3472C130.745 24.4587 130.584 24.6148 130.469 24.8152C130.354 25.0155 130.297 25.2409 130.297 25.4903Z" fill="#616BE8"/>
<path d="M134.925 26.6029L137.18 23.4272H137.716V27.2616H137.18V24.0824L134.925 27.2616H134.4V23.4272H134.925V26.6029Z" fill="#616BE8"/>
<path d="M140.262 25.2095C140.477 25.2598 140.642 25.3367 140.757 25.4399C140.963 25.6249 141.066 25.8663 141.066 26.1637C141.066 26.3006 141.039 26.4391 140.985 26.5795C140.931 26.7199 140.858 26.8395 140.764 26.9379C140.694 27.0122 140.606 27.0831 140.5 27.1504C140.385 27.2174 140.276 27.2642 140.173 27.2908C140.071 27.3149 139.933 27.3267 139.762 27.3267C139.502 27.3267 139.274 27.2812 139.076 27.1898C138.879 27.0985 138.726 26.9667 138.616 26.794C138.506 26.6209 138.447 26.4183 138.439 26.1855H138.965C138.982 26.3176 139.004 26.4154 139.031 26.4792C139.058 26.5426 139.104 26.6058 139.17 26.668C139.322 26.8122 139.514 26.884 139.747 26.884C139.977 26.884 140.165 26.818 140.311 26.6859C140.456 26.5539 140.529 26.3849 140.529 26.1785C140.529 26.0464 140.493 25.9253 140.419 25.815C140.346 25.7044 140.247 25.6182 140.122 25.5557C139.997 25.4935 139.857 25.462 139.703 25.462C139.608 25.462 139.528 25.4669 139.465 25.4765V25.0194C139.565 25.029 139.627 25.0338 139.652 25.0338C139.84 25.0338 140 24.9755 140.131 24.8591C140.262 24.7427 140.328 24.5991 140.328 24.4289C140.328 24.2443 140.269 24.0959 140.152 23.9843C140.034 23.8727 139.877 23.817 139.681 23.817C139.505 23.817 139.363 23.8673 139.255 23.9683C139.148 24.0667 139.084 24.2084 139.064 24.393H138.539C138.561 24.0667 138.677 23.8134 138.885 23.6333C139.093 23.4509 139.373 23.3595 139.726 23.3595C139.937 23.3595 140.128 23.4041 140.301 23.4929C140.473 23.5817 140.608 23.7048 140.706 23.8618C140.804 24.0192 140.853 24.1936 140.853 24.3856C140.853 24.5584 140.819 24.7084 140.75 24.8357C140.709 24.9101 140.653 24.9742 140.581 25.0283C140.51 25.0816 140.403 25.1421 140.262 25.2095Z" fill="#616BE8"/>
<path d="M142.344 25.0617H144.599V23.4269H145.136V27.2613H144.599V25.5258H142.344V27.2613H141.819V23.4269H142.344V25.0617Z" fill="#616BE8"/>
<path d="M149.936 25.4973H146.399C146.426 25.7038 146.467 25.8659 146.523 25.9836C146.599 26.1516 146.709 26.3029 146.854 26.4372C146.998 26.5692 147.163 26.6718 147.349 26.7449C147.535 26.818 147.728 26.8549 147.929 26.8549C148.355 26.8549 148.721 26.7119 149.026 26.4263C149.141 26.316 149.239 26.1791 149.32 26.016H149.877C149.779 26.2368 149.691 26.4026 149.613 26.5128C149.535 26.6234 149.425 26.7372 149.283 26.8549C149.099 27.011 148.886 27.1321 148.644 27.2184C148.402 27.3049 148.159 27.3479 147.914 27.3479C147.545 27.3479 147.205 27.2597 146.894 27.0831C146.583 26.9065 146.337 26.6648 146.154 26.3577C145.972 26.0506 145.881 25.7143 145.881 25.3495C145.881 24.9873 145.971 24.6523 146.153 24.3449C146.333 24.0378 146.58 23.7942 146.892 23.6141C147.204 23.4339 147.542 23.3442 147.907 23.3442C148.215 23.3442 148.507 23.4089 148.784 23.5384C149.061 23.6682 149.296 23.8519 149.492 24.0894C149.678 24.3151 149.807 24.5732 149.878 24.8636C149.902 24.9719 149.922 25.1829 149.936 25.4973ZM146.417 25.0258H149.397C149.358 24.8075 149.266 24.6068 149.121 24.4244C148.98 24.242 148.802 24.0984 148.587 23.9942C148.374 23.8897 148.149 23.8378 147.914 23.8378C147.674 23.8378 147.451 23.8862 147.244 23.9837C147.037 24.0808 146.862 24.2209 146.718 24.4033C146.573 24.5828 146.473 24.7905 146.417 25.0258Z" fill="#616BE8"/>
<path d="M153.977 26.1384H154.564C154.469 26.316 154.389 26.45 154.324 26.5398C154.259 26.6295 154.179 26.718 154.083 26.8045C153.689 27.1668 153.213 27.3482 152.654 27.3482C152.263 27.3482 151.904 27.2607 151.578 27.0853C151.253 26.9077 150.996 26.6664 150.807 26.3615C150.619 26.0544 150.524 25.7172 150.524 25.3499C150.524 24.9851 150.619 24.6488 150.807 24.3417C150.996 24.0346 151.253 23.7923 151.578 23.6144C151.904 23.4342 152.258 23.3445 152.64 23.3445C153.237 23.3445 153.745 23.5531 154.164 23.9712C154.311 24.1199 154.447 24.3263 154.572 24.5905H153.977C153.862 24.4273 153.747 24.2978 153.632 24.2016C153.34 23.9593 153.007 23.8381 152.632 23.8381C152.343 23.8381 152.078 23.9051 151.835 24.0398C151.593 24.1718 151.402 24.3529 151.262 24.5834C151.122 24.8139 151.053 25.0646 151.053 25.3361C151.053 25.6194 151.121 25.8775 151.258 26.1102C151.395 26.3407 151.585 26.5231 151.828 26.6574C152.067 26.7895 152.333 26.8555 152.625 26.8555C152.887 26.8555 153.129 26.8016 153.352 26.6933C153.477 26.6311 153.582 26.5625 153.668 26.4881C153.754 26.4109 153.857 26.2945 153.977 26.1384Z" fill="#616BE8"/>
<path d="M159.284 23.4272V27.2581H158.77V26.5378C158.674 26.6988 158.567 26.8343 158.447 26.9449C158.126 27.2136 157.731 27.3482 157.26 27.3482C156.947 27.3482 156.629 27.2719 156.305 27.1196C155.982 26.9674 155.726 26.7734 155.538 26.5381C155.42 26.3868 155.326 26.2041 155.257 25.989C155.187 25.7743 155.152 25.5589 155.152 25.3428C155.152 24.9828 155.246 24.6491 155.433 24.3417C155.62 24.0346 155.876 23.7923 156.199 23.6144C156.519 23.4342 156.869 23.3445 157.246 23.3445C157.481 23.3445 157.703 23.3804 157.912 23.4525C158.122 23.5246 158.302 23.6288 158.454 23.766C158.571 23.8667 158.677 23.9978 158.77 24.1584V23.4237L159.284 23.4272ZM157.275 23.8378C156.981 23.8378 156.712 23.9054 156.467 24.041C156.222 24.1766 156.03 24.361 155.89 24.5937C155.751 24.8267 155.681 25.0812 155.681 25.3569C155.681 25.6259 155.752 25.8749 155.893 26.1041C156.036 26.3333 156.227 26.516 156.468 26.6516C156.709 26.7872 156.971 26.8552 157.253 26.8552C157.522 26.8552 157.773 26.7872 158.007 26.6516C158.241 26.516 158.426 26.3336 158.564 26.1041C158.701 25.8749 158.769 25.6259 158.769 25.3569C158.769 25.0883 158.702 24.836 158.568 24.6007C158.433 24.3658 158.25 24.1795 158.02 24.0426C157.79 23.9061 157.542 23.8378 157.275 23.8378Z" fill="#616BE8"/>
</svg>
